<?xml version="1.0" encoding="UTF-8"?>
<svg width="220" height="48" viewBox="0 0 220 48" fill="none" xmlns="http://www.w3.org/2000/svg">
  <defs>
    <linearGradient id="grad" x1="0" y1="0" x2="220" y2="48" gradientUnits="userSpaceOnUse">
      <stop offset="0%" stop-color="#ec4899"/>
      <stop offset="100%" stop-color="#8b5cf6"/>
    </linearGradient>
  </defs>
  <!-- Heart mark -->
  <g>
    <path d="M24 12c-4-6.5-14-6.5-18 0c-3 5 0 13 9 20c4 3 7 5 9 6c2-1 5-3 9-6c9-7 12-15 9-20c-4-6.5-14-6.5-18 0z" fill="url(#grad)"/>
    <circle cx="24" cy="12" r="2.5" fill="#fff" opacity=".9"/>
  </g>

  <!-- Wordmark: Catalove -->
  <g transform="translate(54,34)" fill="#111827">
    <path d="M0 -6.5c0-7.2 5-11.5 11.5-11.5c3.1 0 5.7 .9 7.7 2.6l-2.6 3.6c-1.4-1.2-3-1.8-4.9-1.8c-4.1 0-6.8 2.8-6.8 7.1c0 4.3 2.7 7.1 6.8 7.1c1.9 0 3.6-.6 4.9-1.8l2.6 3.6c-2 1.7-4.6 2.6-7.7 2.6C5 - -6.5 0 -6.5z"/>
    <path d="M28 -5v9h-4.9V-5h-3.6v-4h3.6v-3.6l4.9-1.3V-9h4.1v4H28z"/>
    <path d="M52.6 4h-4.8l-1-3h-7.1l-1 3h-4.6L40.1-9h4.9L52.6 4zM40.9-1.1h4.4l-2.2-6.1l-2.2 6.1z"/>
    <path d="M57.2 4v-18.1h4.9V4h-4.9z"/>
    <path d="M67.2 -2.2c1.6 1 3.4 1.6 5 1.6c1.6 0 2.3-.5 2.3-1.3c0-.9-1.1-1.2-2.9-1.6l-1.2-.3c-3.1-.7-5-2.3-5-5.1c0-3.4 2.9-5.6 7-5.6c2.2 0 4.4 .5 6.2 1.5l-1.7 3.8c-1.5-.8-3-1.2-4.5-1.2c-1.4 0-2 .4-2 .9c0 .8 1 .9 2.9 1.4l1.2 .3c3.2 .7 5 2.2 5 5.2c0 3.5-2.8 5.8-7.3 5.8c-2.4 0-4.9-.6-6.9-1.8l1.9-3.6z"/>
    <path d="M99.5-5v9h-4.9V-5h-3.6v-4h3.6v-3.6l4.9-1.3V-9h4.1v4h-4.1z"/>
    <path d="M108.9-5.1c0-5.3 3.8-9 9.2-9c5.4 0 9.1 3.7 9.1 9c0 5.3-3.7 9-9.1 9c-5.4 0-9.2-3.7-9.2-9zm13.4 0c0-3-1.8-5.1-4.2-5.1c-2.5 0-4.3 2.1-4.3 5.1c0 3 1.8 5.1 4.3 5.1c2.4 0 4.2-2.1 4.2-5.1z"/>
  </g>
</svg>


